<svg id="visual" viewBox="0 0 900 600" width="900" height="600" xmlns="http://www.w3.org/2000/svg" xmlns:xlink="http://www.w3.org/1999/xlink" version="1.1"><rect x="0" y="0" width="900" height="600" fill="#0D1317"></rect><defs><linearGradient id="grad1_0" x1="33.3%" y1="0%" x2="100%" y2="100%"><stop offset="20%" stop-color="#0d1317" stop-opacity="1"></stop><stop offset="80%" stop-color="#0d1317" stop-opacity="1"></stop></linearGradient></defs><defs><linearGradient id="grad2_0" x1="0%" y1="0%" x2="66.7%" y2="100%"><stop offset="20%" stop-color="#0d1317" stop-opacity="1"></stop><stop offset="80%" stop-color="#0d1317" stop-opacity="1"></stop></linearGradient></defs><g transform="translate(900, 0)"><path d="M0 324.5C-41.3 320 -82.5 315.4 -124.2 299.8C-165.8 284.2 -207.9 257.5 -219.2 219.2C-230.5 180.9 -211.1 131.1 -223.6 92.6C-236 54.1 -280.3 27.1 -324.5 0L0 0Z" fill="#89D2DC"></path></g><g transform="translate(0, 600)"><path d="M0 -324.5C25.6 -280.4 51.2 -236.3 94.1 -227.3C137.1 -218.2 197.5 -244.1 229.5 -229.5C261.5 -214.8 265.1 -159.4 276.2 -114.4C287.4 -69.4 305.9 -34.7 324.5 0L0 0Z" fill="#89D2DC"></path></g></svg>